<?xml version="1.0" standalone="no"?>
<!DOCTYPE svg PUBLIC "-//W3C//DTD SVG 20010904//EN"
 "http://www.w3.org/TR/2001/REC-SVG-20010904/DTD/svg10.dtd">
<svg version="1.0" xmlns="http://www.w3.org/2000/svg"
 width="430.000000pt" height="430.000000pt" viewBox="0 0 430.000000 430.000000"
 preserveAspectRatio="xMidYMid meet">
<metadata>
Created by potrace 1.14, written by Peter Selinger 2001-2017
</metadata>
<g transform="translate(0.000000,430.000000) scale(0.100000,-0.100000)"
fill="#000000" stroke="none">
<path d="M1584 4101 c-22 -10 -55 -34 -73 -52 -31 -33 -91 -147 -91 -173 0 -7
-3 -16 -7 -20 -4 -3 -8 -12 -9 -19 -2 -11 -30 -117 -86 -327 -33 -125 -37
-143 -43 -197 -4 -29 -8 -84 -9 -122 -2 -38 -7 -74 -10 -80 -4 -6 -5 -15 -2
-19 11 -19 -67 -284 -94 -317 -5 -5 -9 -14 -10 -20 -3 -18 -33 -78 -89 -180
-72 -128 -104 -209 -166 -420 -19 -66 -38 -132 -40 -147 -3 -14 -14 -64 -24
-110 -49 -209 -58 -386 -26 -538 3 -14 7 -97 10 -185 10 -319 14 -363 32 -401
25 -53 38 -52 53 3 16 59 54 113 81 113 25 0 94 -64 151 -138 24 -31 48 -62
53 -69 20 -25 31 -39 70 -93 64 -89 173 -211 221 -248 47 -37 84 -45 148 -30
90 21 123 14 229 -43 14 -7 19 -5 26 14 24 63 35 286 16 324 -14 27 -45 53
-120 102 -69 44 -115 88 -155 146 -33 49 -157 272 -189 340 -31 66 -55 119
-56 125 -3 16 -57 120 -65 125 -6 4 -8 11 -5 16 4 5 2 9 -3 9 -5 0 -14 10 -21
22 -7 13 -33 36 -59 51 -26 16 -58 44 -71 63 -22 32 -23 40 -17 136 4 57 9
117 11 133 2 17 7 84 10 150 13 324 17 386 31 490 2 22 7 56 9 75 11 83 27
154 40 180 8 15 42 52 75 82 99 88 105 136 32 236 -24 34 -29 49 -25 84 4 40
26 168 37 213 14 58 109 308 126 330 4 6 11 21 15 35 14 45 112 194 152 230
21 19 51 41 67 48 25 11 32 10 62 -10 18 -13 39 -34 46 -48 7 -14 15 -27 19
-30 15 -14 39 -83 44 -126 15 -123 9 -430 -10 -534 -7 -40 -46 -105 -80 -135
-55 -48 -214 -175 -220 -175 -4 0 -12 -6 -20 -12 -7 -7 -25 -22 -41 -33 -123
-89 -210 -192 -244 -287 -51 -146 -87 -511 -65 -663 12 -89 80 -237 114 -250
27 -10 28 -6 46 147 17 145 59 442 70 498 9 42 39 110 68 153 39 58 72 70 212
72 156 3 184 15 214 92 15 37 30 45 68 34 16 -5 63 -8 104 -7 65 2 81 6 119
32 59 39 79 76 83 155 3 77 23 109 83 138 49 23 69 22 99 -7 19 -19 47 -94 61
-165 9 -47 67 -155 95 -177 4 -3 22 -48 40 -100 40 -115 91 -174 177 -203 30
-10 56 -16 59 -13 3 3 -23 50 -59 103 -70 107 -97 168 -122 283 -9 41 -34 111
-56 154 -45 89 -53 146 -21 146 11 0 23 -5 26 -10 4 -6 10 -8 14 -5 5 2 16 -4
26 -15 10 -11 23 -20 29 -20 17 0 131 -122 146 -156 14 -32 66 -69 75 -54 3 5
-10 48 -30 96 -19 49 -35 93 -35 99 0 17 -49 107 -65 119 -60 48 -82 67 -124
106 -52 48 -67 70 -76 116 -22 103 22 221 157 423 79 118 83 136 23 116 -57
-20 -125 -93 -229 -247 -120 -177 -204 -241 -318 -239 -35 0 -77 8 -104 20
-24 11 -48 20 -52 21 -15 1 -133 133 -151 169 -26 51 -38 101 -46 190 -11 133
-48 228 -102 266 -96 67 -164 80 -239 46z"/>
<path d="M2315 2673 c-57 -24 -208 -117 -213 -132 -3 -9 8 -12 39 -9 40 4 95
-12 109 -32 3 -4 21 -17 40 -29 37 -22 114 -29 125 -11 8 13 51 13 78 -1 12
-6 37 -25 55 -43 l33 -31 -6 30 c-28 127 -59 196 -110 248 -33 32 -87 36 -150
10z m111 -48 c9 -14 12 -29 8 -37 -5 -7 -10 -21 -11 -31 -7 -45 -22 -57 -64
-51 -44 6 -104 40 -114 64 -10 23 22 40 57 29 18 -5 34 -12 37 -17 3 -5 16
-11 28 -14 26 -7 35 10 26 52 -7 37 10 40 33 5z"/>
<path d="M2959 2591 c-12 -21 -32 -44 -46 -50 -19 -9 -23 -16 -17 -34 3 -12 7
-22 8 -23 0 0 25 -15 54 -32 29 -18 58 -32 65 -32 8 0 7 4 -3 10 -8 5 -12 10
-8 10 4 0 0 19 -8 42 -8 23 -15 66 -17 95 -1 29 -3 53 -4 53 -1 0 -12 -18 -24
-39z"/>
<path d="M3321 2229 c-55 -17 -118 -65 -130 -100 -28 -80 -9 -125 99 -237 43
-46 85 -98 92 -117 6 -19 15 -35 18 -35 11 0 129 166 155 219 48 95 27 204
-50 251 -41 25 -132 35 -184 19z"/>
<path d="M3260 1596 c-47 -18 -110 -45 -141 -59 -115 -54 -201 -75 -314 -79
-61 -2 -124 21 -287 107 -69 36 -156 59 -183 48 -58 -22 196 -138 360 -164
168 -27 314 -12 423 44 75 39 140 50 166 27 13 -10 20 -9 41 4 29 19 52 52 57
81 5 30 -26 28 -122 -9z"/>
<path d="M2370 1351 c0 -14 48 -44 110 -70 120 -50 192 -106 230 -181 47 -92
7 -231 -105 -367 -109 -133 -181 -256 -189 -323 -3 -31 10 -119 19 -129 9 -8
31 21 65 87 18 34 36 62 41 62 5 0 9 6 9 13 0 21 81 97 136 129 30 16 54 34
54 39 0 5 4 9 10 9 35 0 274 203 291 247 5 14 2 39 -11 75 -14 42 -16 64 -9
106 15 96 14 148 -4 176 -20 31 -10 28 -122 31 -49 1 -117 5 -150 9 -76 9
-255 53 -318 77 -55 22 -57 22 -57 10z"/>
</g>
</svg>
